<svg width="30" height="30" viewBox="0 0 30 30" fill="none" xmlns="http://www.w3.org/2000/svg">
<g clip-path="url(#clip0_22_911)">
<path d="M29.1061 16.7645H16.0202L24.7351 25.4794C25.0682 25.8124 25.6164 25.8395 25.9588 25.5169C28.093 23.5062 29.561 20.7957 29.9917 17.7488C30.0656 17.2272 29.6327 16.7645 29.1061 16.7645ZM28.2331 13.1909C27.7787 6.60307 22.5143 1.33873 15.9265 0.884318C15.4235 0.849576 15 1.27366 15 1.7777V14.1174H27.3403C27.8443 14.1174 28.2678 13.6939 28.2331 13.1909ZM12.3529 16.7645V3.67862C12.3529 3.15197 11.8903 2.71906 11.3691 2.79296C4.79724 3.72164 -0.226104 9.463 0.00771904 16.3437C0.24816 23.4102 6.33253 29.2051 13.4024 29.1163C16.1818 29.0816 18.75 28.186 20.8616 26.6882C21.2972 26.3794 21.3259 25.738 20.9482 25.3602L12.3529 16.7645Z" fill="#DD6E42"/>
</g>
<defs>
<clipPath id="clip0_22_911">
<rect width="30" height="30" fill="white"/>
</clipPath>
</defs>
</svg>
