<svg width="30" height="30" viewBox="0 0 30 30" fill="none" xmlns="http://www.w3.org/2000/svg">
<g clip-path="url(#clip0_15_126)">
<path d="M29.1061 16.7647H16.0202L24.7351 25.4796C25.0682 25.8127 25.6164 25.8397 25.9588 25.5171C28.093 23.5064 29.561 20.796 29.9917 17.7491C30.0656 17.2274 29.6327 16.7647 29.1061 16.7647ZM28.2331 13.1912C27.7787 6.60331 22.5143 1.33897 15.9265 0.884562C15.4235 0.84982 15 1.2739 15 1.77795V14.1177H27.3403C27.8443 14.1177 28.2678 13.6941 28.2331 13.1912ZM12.3529 16.7647V3.67886C12.3529 3.15221 11.8903 2.71931 11.3691 2.7932C4.79724 3.72188 -0.226104 9.46324 0.00771904 16.3439C0.24816 23.4105 6.33253 29.2053 13.4024 29.1166C16.1818 29.0818 18.75 28.1862 20.8616 26.6884C21.2972 26.3796 21.3259 25.7382 20.9482 25.3605L12.3529 16.7647Z" fill="#0E132B"/>
</g>
<defs>
<clipPath id="clip0_15_126">
<rect width="30" height="30" fill="white"/>
</clipPath>
</defs>
</svg>
