<svg width="30" height="30" viewBox="0 0 30 30" fill="none" xmlns="http://www.w3.org/2000/svg">
<circle cx="15" cy="15" r="15" fill="#DD6E42"/>
<path d="M22.5 13.125H16.875V7.5C16.875 6.80977 16.3152 6.25 15.625 6.25H14.375C13.6848 6.25 13.125 6.80977 13.125 7.5V13.125H7.5C6.80977 13.125 6.25 13.6848 6.25 14.375V15.625C6.25 16.3152 6.80977 16.875 7.5 16.875H13.125V22.5C13.125 23.1902 13.6848 23.75 14.375 23.75H15.625C16.3152 23.75 16.875 23.1902 16.875 22.5V16.875H22.5C23.1902 16.875 23.75 16.3152 23.75 15.625V14.375C23.75 13.6848 23.1902 13.125 22.5 13.125Z" fill="white"/>
</svg>
