<svg width="25" height="25" viewBox="0 0 25 25" fill="none" xmlns="http://www.w3.org/2000/svg">
<path d="M25 7.03125V21.0938C25 22.3877 23.9502 23.4375 22.6562 23.4375H2.34375C1.0498 23.4375 0 22.3877 0 21.0938V7.03125C0 5.7373 1.0498 4.6875 2.34375 4.6875H6.64062L7.24121 3.08105C7.58301 2.16797 8.45703 1.5625 9.43359 1.5625H15.5615C16.5381 1.5625 17.4121 2.16797 17.7539 3.08105L18.3594 4.6875H22.6562C23.9502 4.6875 25 5.7373 25 7.03125ZM18.3594 14.0625C18.3594 10.8301 15.7324 8.20312 12.5 8.20312C9.26758 8.20312 6.64062 10.8301 6.64062 14.0625C6.64062 17.2949 9.26758 19.9219 12.5 19.9219C15.7324 19.9219 18.3594 17.2949 18.3594 14.0625ZM16.7969 14.0625C16.7969 16.4307 14.8682 18.3594 12.5 18.3594C10.1318 18.3594 8.20312 16.4307 8.20312 14.0625C8.20312 11.6943 10.1318 9.76562 12.5 9.76562C14.8682 9.76562 16.7969 11.6943 16.7969 14.0625Z" fill="white"/>
</svg>
