<svg width="80" height="80" viewBox="0 0 80 80" fill="none" xmlns="http://www.w3.org/2000/svg">
<path d="M0 0H70C75.5228 0 80 4.47715 80 10V80C80 80 56.5025 52.3383 40 36C25.0654 21.214 0 0 0 0Z" fill="#DD6E42"/>
<path d="M66.6875 23C66.6875 28.3503 62.3503 32.6875 57 32.6875C51.6497 32.6875 47.3125 28.3503 47.3125 23C47.3125 17.6497 51.6497 13.3125 57 13.3125C62.3503 13.3125 66.6875 17.6497 66.6875 23ZM55.8795 28.1295L63.067 20.942C63.311 20.6979 63.311 20.3021 63.067 20.0581L62.1831 19.1742C61.939 18.9301 61.5433 18.9301 61.2992 19.1742L55.4375 25.0359L52.7008 22.2992C52.4568 22.0551 52.061 22.0551 51.8169 22.2992L50.933 23.183C50.689 23.4271 50.689 23.8229 50.933 24.0669L54.9955 28.1294C55.2396 28.3735 55.6354 28.3735 55.8795 28.1295V28.1295Z" fill="#F0F1F1"/>
</svg>
