<svg width="70" height="26" viewBox="0 0 70 26" fill="none" xmlns="http://www.w3.org/2000/svg">
<g clip-path="url(#clip0_15_244)">
<path d="M4.78226 23.4974C3.31916 22.7899 2.10008 21.6685 1.27875 20.2747C0.417717 18.8036 -0.0242768 17.1283 -2.4355e-05 15.4275C-0.0479965 13.0787 0.452629 10.7508 1.46269 8.62586C2.3314 6.76496 3.69758 5.17568 5.41289 4.03062C7.05536 2.94995 8.98621 2.38121 10.9572 2.39752C11.7366 2.34307 12.5192 2.44332 13.2592 2.69241C13.9991 2.9415 14.6815 3.33442 15.2665 3.8482C15.7622 4.34991 16.1485 4.94731 16.4017 5.60331C16.6548 6.25932 16.7693 6.95992 16.738 7.66164C16.7774 8.54772 16.581 9.42849 16.1686 10.2155C16.0204 10.5117 15.79 10.7597 15.5045 10.9305C15.219 11.1013 14.8903 11.1878 14.557 11.1797C14.1434 11.206 13.7337 11.086 13.4009 10.841C13.2579 10.7197 13.1455 10.5671 13.0725 10.3952C12.9995 10.2232 12.968 10.0368 12.9805 9.85068C12.9951 9.55906 13.0303 9.2688 13.0856 8.98201C13.1775 8.57087 13.2303 8.15207 13.2432 7.73113C13.2432 6.15016 12.3936 5.35968 10.6944 5.35968C9.49745 5.37526 8.33705 5.77105 7.38361 6.48894C6.24917 7.34092 5.36843 8.48157 4.83481 9.78987C4.15001 11.4264 3.81881 13.1871 3.86259 14.9584C3.80529 15.8409 3.93119 16.7256 4.2325 17.5578C4.53382 18.3901 5.00413 19.1522 5.61434 19.7969C6.78217 20.9551 8.51641 21.5342 10.817 21.5342C11.9803 21.5281 13.1387 21.3853 14.268 21.1086C15.5933 20.7668 16.8904 20.3254 18.1481 19.7882C18.3555 19.6965 18.5782 19.6435 18.805 19.6319C18.9285 19.6249 19.0517 19.6502 19.1623 19.705C19.2729 19.7599 19.3671 19.8425 19.4357 19.9446C19.585 20.1872 19.6581 20.4684 19.6459 20.7524C19.6421 21.277 19.4704 21.7868 19.1556 22.2084C18.8407 22.6299 18.399 22.9414 17.8941 23.0978C16.6486 23.6263 15.347 24.0138 14.014 24.2532C12.7526 24.4955 11.4712 24.6205 10.1864 24.6267C8.32147 24.667 6.47224 24.2806 4.78226 23.4974Z" fill="#DD6E42"/>
<path d="M28.0981 18.9977C28.2503 19.2612 28.3204 19.5635 28.2996 19.8664C28.3364 20.4472 28.1589 21.0215 27.8003 21.4821C27.1011 22.3546 26.2745 23.1188 25.3479 23.7493C24.4562 24.3364 23.4049 24.6395 22.3348 24.618C21.6253 24.6469 20.9226 24.4701 20.3127 24.109C19.7029 23.748 19.2125 23.2185 18.9014 22.5853C18.0947 20.9034 17.7129 19.0519 17.7891 17.1909C17.8224 14.755 18.0982 12.3284 18.6124 9.94623C19.0747 7.52234 19.8983 5.18022 21.0561 2.9969C22.1422 0.972905 23.4209 -6.77403e-07 24.9099 -6.77403e-07C25.3155 -0.00295842 25.7144 0.102839 26.0644 0.306207C26.4144 0.509574 26.7025 0.802953 26.8982 1.15533C27.4317 2.18123 27.6796 3.3297 27.6164 4.48232C27.5139 6.97059 26.9187 9.41454 25.8646 11.6749C24.6231 14.5502 23.0444 17.2705 21.1612 19.7795C21.2174 20.3345 21.4265 20.8634 21.7655 21.3084C21.9053 21.4587 22.0765 21.5769 22.2671 21.6549C22.4577 21.733 22.6631 21.7688 22.8691 21.7601C23.5507 21.7735 24.217 21.5594 24.761 21.152C25.5236 20.5235 26.2192 19.8191 26.8369 19.0498C26.9198 18.94 27.0267 18.8502 27.1495 18.787C27.2724 18.7238 27.408 18.689 27.5463 18.685C27.6589 18.6791 27.7707 18.7054 27.8686 18.7609C27.9664 18.8163 28.0461 18.8986 28.0981 18.9977ZM22.9655 4.74292C22.3789 6.49514 21.9308 8.29002 21.6254 10.1113C21.2597 12.1422 21.0576 14.1987 21.021 16.2614C22.2146 14.3388 23.2094 12.3016 23.9903 10.1808C24.6772 8.39213 25.0505 6.50008 25.0939 4.58656C25.0763 3.26618 24.8223 2.606 24.3318 2.606C23.8414 2.606 23.3859 3.3183 22.9655 4.74292Z" fill="#DD6E42"/>
<path d="M27.9667 23.8623C27.2429 23.3504 26.676 22.6499 26.3288 21.8383C25.9581 20.9915 25.7702 20.0772 25.777 19.1541C25.7547 17.9407 26.0092 16.7381 26.5215 15.636C26.9715 14.662 27.6761 13.8252 28.5623 13.2124C29.4127 12.6349 30.422 12.3315 31.4527 12.3438C32.3883 12.3243 33.3067 12.5946 34.0803 13.1169C34.8112 13.6219 35.3847 14.3201 35.7357 15.1322C36.1063 15.9789 36.2943 16.8932 36.2875 17.8163C36.3098 19.0372 36.0491 20.2467 35.5255 21.3518C35.065 22.3269 34.3517 23.1633 33.4584 23.7754C32.6131 24.35 31.6103 24.6533 30.5855 24.6441C29.6515 24.6626 28.7352 24.3891 27.9667 23.8623ZM32.4074 20.848C32.8737 19.9851 33.089 19.0107 33.0292 18.0335C33.0814 17.2762 32.8979 16.5212 32.5037 15.8705C32.3719 15.6539 32.1873 15.4736 31.9669 15.3461C31.7466 15.2187 31.4975 15.1481 31.2424 15.1409C30.9193 15.1487 30.6041 15.2412 30.3287 15.409C30.0533 15.5769 29.8276 15.814 29.6746 16.0964C29.2089 16.9624 28.9965 17.9402 29.0615 18.9196C29.0027 19.6857 29.1865 20.4509 29.587 21.1086C29.7304 21.3244 29.9254 21.5016 30.1546 21.6244C30.3839 21.7472 30.6403 21.8117 30.9009 21.8122C31.2163 21.801 31.5227 21.7055 31.7879 21.5357C32.0531 21.366 32.2671 21.1284 32.4074 20.848Z" fill="#DD6E42"/>
<path d="M40.737 24.5746C40.5192 24.4078 40.3417 24.1949 40.2174 23.9515C40.0932 23.708 40.0253 23.4401 40.0188 23.1673C40.0171 22.9484 40.0605 22.7315 40.1463 22.5299C40.2322 22.3282 40.3586 22.1461 40.518 21.9946C40.7175 21.8188 40.9505 21.6843 41.2032 21.5993C41.4559 21.5142 41.7233 21.4803 41.9895 21.4995C42.2565 21.5044 42.5228 21.5276 42.7865 21.569L43.4872 21.6558C43.4706 21.2143 43.3665 20.7804 43.1807 20.3789C42.9902 19.9687 42.7584 19.5787 42.4887 19.2149C42.2084 18.85 41.9457 18.52 41.7004 18.242C41.2376 19.1392 40.6954 19.9938 40.0801 20.7959C39.5411 21.4774 38.9558 22.1217 38.3283 22.7243C38.2023 22.8651 38.0489 22.9793 37.8773 23.0599C37.7057 23.1405 37.5195 23.1859 37.3298 23.1934C37.2004 23.1959 37.0719 23.17 36.9538 23.1174C36.8357 23.0648 36.7308 22.9869 36.6466 22.8893C36.468 22.6851 36.3741 22.4212 36.3839 22.151C36.3961 21.7918 36.5393 21.4492 36.7868 21.1868L37.1284 20.7698C37.9078 19.8365 38.6358 18.8622 39.3093 17.8511C39.6071 17.3473 39.9574 16.6784 40.3603 15.8358C40.7633 14.9932 41.1574 14.0984 41.5428 13.2298C41.7226 12.846 42.0203 12.5284 42.3931 12.3224C42.7659 12.1165 43.1949 12.0327 43.6186 12.0831C43.9654 12.0622 44.3131 12.1064 44.6434 12.2134C44.7294 12.2443 44.8036 12.3011 44.8554 12.3759C44.9073 12.4506 44.9342 12.5397 44.9324 12.6304C44.9196 12.7993 44.8842 12.9658 44.8273 13.1255C44.7535 13.3602 44.6567 13.5871 44.5383 13.8031C44.262 14.2909 44.1003 14.8343 44.0653 15.3928C44.0764 15.7011 44.1701 16.0009 44.3368 16.2614C44.5992 16.6732 44.892 17.0652 45.2127 17.4341C45.6566 18.0205 46.0604 18.6358 46.4214 19.2757C46.7121 19.7872 46.8631 20.3651 46.8593 20.9522C46.8546 21.1962 46.837 21.4397 46.8068 21.6819C48.0115 21.0681 49.0484 20.1739 49.8286 19.0759C49.9115 18.9661 50.0184 18.8762 50.1412 18.8131C50.2641 18.7499 50.3997 18.715 50.538 18.7111C50.6473 18.7104 50.7546 18.7392 50.8487 18.7942C50.9428 18.8493 51.0201 18.9286 51.0723 19.0238C51.2203 19.2889 51.2901 19.5899 51.2738 19.8924C51.2987 20.4571 51.1322 21.0137 50.8008 21.4734C50.1287 22.3761 49.2721 23.128 48.287 23.6798C47.3603 24.0986 46.3537 24.3149 45.3353 24.314C44.6381 24.8962 43.7502 25.2051 42.8391 25.1826C42.0871 25.2402 41.3398 25.024 40.737 24.5746Z" fill="#DD6E42"/>
<path d="M61.4164 18.9977C61.5643 19.2628 61.6341 19.5638 61.6178 19.8664C61.6547 20.4472 61.4772 21.0215 61.1186 21.4821C60.3431 22.3641 59.4109 23.0972 58.3683 23.6451C57.2132 24.2985 55.9055 24.6399 54.5758 24.6354C53.7981 24.6831 53.0187 24.5763 52.2832 24.3212C51.5477 24.0661 50.871 23.6679 50.2928 23.15C49.7744 22.6153 49.3718 21.9812 49.1097 21.2866C48.8476 20.5919 48.7316 19.8514 48.7687 19.1107C48.7606 17.9499 49.0213 16.8027 49.5307 15.7576C50.0088 14.7515 50.7497 13.8906 51.6766 13.2645C52.5853 12.6718 53.655 12.3687 54.7422 12.3959C55.1874 12.3709 55.6332 12.435 56.053 12.5842C56.4728 12.7334 56.858 12.9648 57.1859 13.2645C57.4914 13.5893 57.7267 13.9726 57.8773 14.3909C58.0279 14.8092 58.0907 15.2536 58.0618 15.6968C58.0677 16.2732 57.955 16.8447 57.7306 17.3764C57.5062 17.9081 57.1748 18.3889 56.7567 18.7893C55.4999 19.8344 53.9908 20.5379 52.3773 20.8306C52.6393 21.2414 53.0119 21.5714 53.453 21.7832C53.8941 21.9951 54.3862 22.0803 54.8736 22.0294C55.8245 21.9834 56.7487 21.7027 57.5625 21.2128C58.5698 20.6689 59.462 19.9374 60.1902 19.0585C60.2731 18.9487 60.38 18.8589 60.5028 18.7957C60.6257 18.7325 60.7613 18.6977 60.8996 18.6937C61.005 18.6953 61.1081 18.7242 61.1988 18.7775C61.2894 18.8309 61.3645 18.9068 61.4164 18.9977ZM52.6138 16.0269C52.1478 16.8536 51.9176 17.7905 51.9482 18.7371V18.7893C52.8358 18.6128 53.6714 18.2385 54.3919 17.6947C54.6589 17.4978 54.8768 17.2426 55.0287 16.9489C55.1805 16.6552 55.2623 16.3309 55.2677 16.0008C55.2809 15.7113 55.1804 15.428 54.9875 15.2104C54.8932 15.109 54.7777 15.0292 54.6491 14.9767C54.5205 14.9242 54.3819 14.9002 54.243 14.9063C53.8948 14.9301 53.5595 15.0468 53.2728 15.2441C52.986 15.4413 52.7583 15.7118 52.6138 16.0269Z" fill="#DD6E42"/>
<path d="M63.8251 14.8281C63.79 15.6968 63.7725 16.3744 63.7725 16.8608C63.743 17.8424 63.7987 18.8247 63.9389 19.7969C64.0032 20.3538 64.2317 20.8796 64.5958 21.3084C64.7679 21.4643 64.9697 21.5845 65.1893 21.6621C65.4089 21.7396 65.6419 21.773 65.8746 21.7601C66.2221 21.7434 66.5623 21.6547 66.8731 21.4995C67.2559 21.3275 67.6102 21.099 67.9241 20.8219C68.0772 20.6664 68.2834 20.5734 68.5022 20.5613C68.6123 20.5665 68.7186 20.6027 68.8087 20.6658C68.8987 20.729 68.9686 20.8163 69.0102 20.9175C69.1524 21.1847 69.2218 21.4841 69.2117 21.7861C69.2098 22.1176 69.1414 22.4454 69.0102 22.7504C68.8853 23.0565 68.6833 23.3257 68.4234 23.5322C67.559 24.2628 66.4585 24.6605 65.3228 24.6527C64.5824 24.6876 63.8474 24.5115 63.2048 24.1451C62.5622 23.7787 62.0388 23.2374 61.6967 22.5853C60.8588 20.9064 60.4612 19.0452 60.5405 17.1735C60.5405 16.4091 60.5668 15.636 60.6193 14.8542H59.5595C59.1794 14.8984 58.7968 14.7957 58.491 14.5675C58.2968 14.3205 58.2002 14.0116 58.2194 13.6989C58.2194 12.726 58.6136 12.2395 59.4019 12.2395H60.8996C61.1673 10.459 61.6253 8.71184 62.266 7.02751C62.7612 5.6422 63.5127 4.3607 64.482 3.24882C64.8141 2.80575 65.2406 2.44065 65.731 2.17943C66.2215 1.9182 66.7639 1.76727 67.3198 1.73734C67.6722 1.72714 68.0209 1.8113 68.3291 1.98098C68.6374 2.15065 68.8938 2.39957 69.0715 2.70156C69.517 3.43054 69.7363 4.27341 69.7022 5.12514C69.6929 6.47551 69.3817 7.80703 68.7911 9.02374C68.2004 10.2405 67.3449 11.3121 66.2863 12.1613H69.1942C69.4115 12.1455 69.627 12.2105 69.7985 12.3437C69.9443 12.5383 70.01 12.7805 69.9825 13.0213C69.9825 14.2201 68.9927 14.8194 67.0132 14.8194L63.8251 14.8281ZM65.6907 5.212C65.3048 6.08888 65.0113 7.00294 64.8148 7.93961C64.5061 9.20573 64.2663 10.4874 64.0966 11.7791C65.0786 10.9608 65.8704 9.94137 66.4176 8.79091C66.8947 7.85714 67.1607 6.83147 67.1972 5.78532C67.1972 4.7603 67.0045 4.24778 66.6191 4.24778C66.3476 4.24778 66.0498 4.57788 65.6907 5.212Z" fill="#DD6E42"/>
</g>
<defs>
<clipPath id="clip0_15_244">
<rect width="70" height="25.2" fill="white"/>
</clipPath>
</defs>
</svg>
