<svg width="30" height="30" viewBox="0 0 30 30" fill="none" xmlns="http://www.w3.org/2000/svg">
<path d="M28.4912 21.5106L16.8574 13.9638L17.9121 13.2606C19.3755 12.285 20.25 10.6518 20.25 8.84998C20.25 5.95544 17.8945 3.59998 15 3.59998C12.1055 3.59998 9.75 5.95544 9.75 8.84998C9.75 9.47107 10.2539 9.97498 10.875 9.97498C11.4961 9.97498 12 9.47107 12 8.84998C12 7.19618 13.3462 5.84998 15 5.84998C16.6538 5.84998 18 7.19618 18 8.89244C18 9.89735 17.5005 10.8304 16.6641 11.3885L1.47511 21.515C0.552234 22.1302 0 23.16 0 24.288C0 26.1146 1.48537 27.6 3.312 27.6H26.688C28.5146 27.6 30 26.1146 30 24.288C30 23.1615 29.436 22.1229 28.4912 21.5106ZM26.688 25.35H3.312C2.72606 25.35 2.25 24.8739 2.25 24.2704C2.25 23.9144 2.42723 23.5849 2.72316 23.3871L14.8184 15.3231L27.2666 23.3974C27.5698 23.5936 27.75 23.9261 27.75 24.288C27.75 24.8739 27.2739 25.35 26.688 25.35Z" fill="#DD6E42"/>
</svg>
