<svg width="30" height="30" viewBox="0 0 30 30" fill="none" xmlns="http://www.w3.org/2000/svg">
<path d="M28.4912 21.5108L16.8574 13.9639L17.9121 13.2608C19.3755 12.2851 20.25 10.6519 20.25 8.8501C20.25 5.95557 17.8945 3.6001 15 3.6001C12.1055 3.6001 9.75 5.95557 9.75 8.8501C9.75 9.47119 10.2539 9.9751 10.875 9.9751C11.4961 9.9751 12 9.47119 12 8.8501C12 7.1963 13.3462 5.8501 15 5.8501C16.6538 5.8501 18 7.1963 18 8.89257C18 9.89747 17.5005 10.8306 16.6641 11.3887L1.47511 21.5152C0.552234 22.1303 0 23.1601 0 24.2881C0 26.1147 1.48537 27.6001 3.312 27.6001H26.688C28.5146 27.6001 30 26.1147 30 24.2881C30 23.1616 29.436 22.123 28.4912 21.5108ZM26.688 25.3501H3.312C2.72606 25.3501 2.25 24.874 2.25 24.2705C2.25 23.9146 2.42723 23.585 2.72316 23.3872L14.8184 15.3233L27.2666 23.3975C27.5698 23.5937 27.75 23.9263 27.75 24.2881C27.75 24.874 27.2739 25.3501 26.688 25.3501Z" fill="#0E132B"/>
</svg>
