<svg width="25" height="25" viewBox="0 0 25 25" fill="none" xmlns="http://www.w3.org/2000/svg">
<g clip-path="url(#clip0_15_61)">
<path d="M22.4688 15.2227C22.4766 15.1484 22.5 15.0781 22.5 15.0039C22.5 13.625 21.3789 12.5039 20 12.5039C19.5078 12.5039 19.0547 12.6523 18.668 12.8945C17.9805 11.3789 16.4609 10.3164 14.6875 10.3164C12.2734 10.3164 10.3125 12.2734 10.3125 14.6914C10.3125 14.8086 10.3398 14.918 10.3477 15.0312C8.41016 15.1758 6.875 16.7773 6.875 18.7539C6.875 20.8242 8.55469 22.5039 10.625 22.5039H21.25C23.3203 22.5039 25 20.8242 25 18.7539C25 17.1094 23.9375 15.7305 22.4688 15.2227ZM5.65625 14.3398C3.94922 12.6328 3.94922 9.85938 5.65625 8.15625C7.36328 6.44922 10.1367 6.44922 11.8438 8.15625C12.2227 8.53516 12.5039 8.97266 12.7148 9.43359C13.0977 9.28906 13.5 9.19922 13.9141 9.14062L15.0781 5.66797C15.2344 5.20312 14.793 4.76562 14.3281 4.91797L10.8984 6.0625L9.27734 2.82812C9.0625 2.39062 8.4375 2.39062 8.21875 2.82812L6.60156 6.0625L3.16797 4.91797C2.70703 4.76562 2.26562 5.20703 2.41797 5.66797L3.5625 9.09766L0.328125 10.7188C-0.109375 10.9375 -0.109375 11.5586 0.328125 11.7773L3.5625 13.3945L2.41797 16.8242C2.26172 17.2891 2.70312 17.7266 3.16797 17.5742L6.14062 16.5859C6.37891 16.1016 6.6875 15.6602 7.0625 15.2773C6.55078 15.0664 6.07031 14.7539 5.65625 14.3398ZM5.46875 11.2461C5.46875 12.8398 6.61328 14.168 8.12109 14.4609C8.43359 14.2773 8.75781 14.1172 9.10547 14.0039C9.31641 12.2734 10.3164 10.7812 11.7383 9.90234C11.2227 8.76562 10.0781 7.96875 8.75 7.96875C6.94141 7.96875 5.46875 9.4375 5.46875 11.2461Z" fill="#808F9D"/>
</g>
<defs>
<clipPath id="clip0_15_61">
<rect width="25" height="25" fill="white"/>
</clipPath>
</defs>
</svg>
