<svg width="15" height="15" viewBox="0 0 15 15" fill="none" xmlns="http://www.w3.org/2000/svg">
<g clip-path="url(#clip0_98_192)">
<path d="M13.4813 9.13359C13.4859 9.08906 13.5 9.04688 13.5 9.00234C13.5 8.175 12.8273 7.50234 12 7.50234C11.7047 7.50234 11.4328 7.59141 11.2008 7.73672C10.7883 6.82734 9.87656 6.18984 8.8125 6.18984C7.36406 6.18984 6.1875 7.36406 6.1875 8.81484C6.1875 8.88516 6.20391 8.95078 6.20859 9.01875C5.04609 9.10547 4.125 10.0664 4.125 11.2523C4.125 12.4945 5.13281 13.5023 6.375 13.5023H12.75C13.9922 13.5023 15 12.4945 15 11.2523C15 10.2656 14.3625 9.43828 13.4813 9.13359ZM3.39375 8.60391C2.36953 7.57969 2.36953 5.91563 3.39375 4.89375C4.41797 3.86953 6.08203 3.86953 7.10625 4.89375C7.33359 5.12109 7.50234 5.38359 7.62891 5.66016C7.85859 5.57344 8.1 5.51953 8.34844 5.48438L9.04688 3.40078C9.14062 3.12188 8.87578 2.85938 8.59687 2.95078L6.53906 3.6375L5.56641 1.69688C5.4375 1.43437 5.0625 1.43437 4.93125 1.69688L3.96094 3.6375L1.90078 2.95078C1.62422 2.85938 1.35938 3.12422 1.45078 3.40078L2.1375 5.45859L0.196875 6.43125C-0.065625 6.5625 -0.065625 6.93516 0.196875 7.06641L2.1375 8.03672L1.45078 10.0945C1.35703 10.3734 1.62187 10.6359 1.90078 10.5445L3.68437 9.95156C3.82734 9.66094 4.0125 9.39609 4.2375 9.16641C3.93047 9.03984 3.64219 8.85234 3.39375 8.60391ZM3.28125 6.74766C3.28125 7.70391 3.96797 8.50078 4.87266 8.67656C5.06016 8.56641 5.25469 8.47031 5.46328 8.40234C5.58984 7.36406 6.18984 6.46875 7.04297 5.94141C6.73359 5.25938 6.04688 4.78125 5.25 4.78125C4.16484 4.78125 3.28125 5.6625 3.28125 6.74766Z" fill="#09091A"/>
</g>
<defs>
<clipPath id="clip0_98_192">
<rect width="15" height="15" fill="white"/>
</clipPath>
</defs>
</svg>
