<svg width="100" height="100" viewBox="0 0 100 100" fill="none" xmlns="http://www.w3.org/2000/svg">
<g clip-path="url(#clip0_26_72)">
<path d="M78.0686 98.3465C73.9715 66.7541 64.0401 41.2043 62.5106 37.4002L65.3762 23.0721L74.303 19.2463C75.7405 18.6305 76.479 16.9859 75.9844 15.5023L72.6498 5.49961C71.9161 3.29785 70.035 1.71094 67.7413 1.35781C55.969 -0.45293 44.0311 -0.45293 32.2586 1.35781C29.9647 1.71094 28.0838 3.29785 27.35 5.49941L24.0157 15.5025C23.5211 16.9861 24.2598 18.6307 25.6969 19.2463L34.6239 23.0723L37.4895 37.4006C35.9596 41.2053 26.0284 66.7547 21.9313 98.3467C21.877 98.7646 22.0053 99.1855 22.2836 99.502C22.5618 99.8186 22.9627 100 23.384 100H76.6155C77.0368 100 77.4377 99.8186 77.7159 99.502C77.9944 99.1854 78.1227 98.7645 78.0686 98.3465ZM59.661 3.34648C57.3391 6.84102 54.0475 10.9385 49.9553 13.7941C45.868 10.9385 42.5746 6.83203 40.2616 3.35332C46.7186 2.79727 53.2038 2.79512 59.661 3.34648ZM35.7803 13.9141C35.6215 13.1209 34.8498 12.6078 34.0567 12.7648C33.2633 12.9236 32.7489 13.6953 32.9075 14.4885L33.927 19.5861L26.851 16.5533C26.8034 16.533 26.7787 16.4783 26.7953 16.4291L30.1297 6.42598C30.5147 5.27109 31.5012 4.43848 32.7045 4.25352C34.1282 4.03457 35.5541 3.84297 36.9821 3.67832C39.6004 7.84531 43.7534 13.3162 49.1637 16.7895C49.4047 16.9441 49.6799 17.0215 49.9551 17.0215C50.2301 17.0215 50.5051 16.9441 50.7459 16.7895C56.1602 13.3166 60.3082 7.86406 62.9413 3.66934C64.395 3.83613 65.8469 4.03047 67.2961 4.25332C68.4995 4.43828 69.486 5.2709 69.8709 6.42578L73.2053 16.4289C73.2217 16.4781 73.1973 16.5326 73.1493 16.5533L66.0737 19.5857L67.0932 14.4881C67.2518 13.6947 66.7373 12.923 65.944 12.7645C65.1502 12.6053 64.379 13.1203 64.2204 13.9137L59.801 36.0104H40.1995L35.7803 13.9141ZM62.3457 97.0701C61.2182 76.8887 59.1608 59.4268 57.6155 48.2342C57.5049 47.4326 56.767 46.8744 55.9639 46.9834C55.1625 47.0939 54.6026 47.8336 54.7131 48.6348C56.2469 59.743 58.2877 77.0563 59.4116 97.0701H40.5883C41.7121 77.0561 43.753 59.7432 45.2868 48.6348C45.3973 47.8334 44.8373 47.0939 44.036 46.9834C43.2344 46.8732 42.4952 47.4328 42.3844 48.2342C40.8391 59.4266 38.7817 76.8887 37.6541 97.0701H25.0573C29.0955 67.5996 38.1106 43.7838 40.0291 38.9402H43.7616C43.6383 39.708 43.4793 40.718 43.2922 41.9529C43.1709 42.7529 43.7211 43.4996 44.5211 43.6207C44.5955 43.632 44.6694 43.6375 44.7424 43.6375C45.4545 43.6375 46.0789 43.1174 46.1889 42.392C46.4153 40.8979 46.6004 39.733 46.7291 38.9402H53.2707C53.3995 39.733 53.5846 40.8979 53.8112 42.392C53.9211 43.1176 54.5456 43.6375 55.2577 43.6375C55.3307 43.6375 55.4045 43.632 55.479 43.6207C56.2788 43.4996 56.8289 42.7529 56.7079 41.9529C56.5205 40.718 56.3618 39.708 56.2383 38.9402H59.9711C61.8893 43.7801 70.902 67.5812 74.9428 97.0701H62.3457Z" fill="#ACB5BC"/>
</g>
<defs>
<clipPath id="clip0_26_72">
<rect width="100" height="100" fill="white"/>
</clipPath>
</defs>
</svg>
