<svg width="100" height="100" viewBox="0 0 100 100" fill="none" xmlns="http://www.w3.org/2000/svg">
<path d="M47.3652 93.1309C47.676 93.1309 47.9741 93.0074 48.1939 92.7876C48.4136 92.5679 48.5371 92.2698 48.5371 91.959V90.0488C48.5371 89.738 48.4136 89.44 48.1939 89.2202C47.9741 89.0004 47.676 88.877 47.3652 88.877C47.0544 88.877 46.7564 89.0004 46.5366 89.2202C46.3168 89.44 46.1934 89.738 46.1934 90.0488V91.959C46.1934 92.2698 46.3168 92.5679 46.5366 92.7876C46.7564 93.0074 47.0544 93.1309 47.3652 93.1309Z" fill="#ACB5BC"/>
<path d="M42.0938 93.1309C42.4046 93.1309 42.7026 93.0074 42.9224 92.7876C43.1422 92.5679 43.2656 92.2698 43.2656 91.959V90.0488C43.2656 89.738 43.1422 89.44 42.9224 89.2202C42.7026 89.0004 42.4046 88.877 42.0938 88.877C41.7829 88.877 41.4849 89.0004 41.2651 89.2202C41.0453 89.44 40.9219 89.738 40.9219 90.0488V91.959C40.9219 92.2698 41.0453 92.5679 41.2651 92.7876C41.4849 93.0074 41.7829 93.1309 42.0938 93.1309Z" fill="#ACB5BC"/>
<path d="M36.8242 93.1309C37.135 93.1309 37.4331 93.0074 37.6529 92.7876C37.8726 92.5679 37.9961 92.2698 37.9961 91.959V90.0488C37.9961 89.738 37.8726 89.44 37.6529 89.2202C37.4331 89.0004 37.135 88.877 36.8242 88.877C36.5134 88.877 36.2153 89.0004 35.9956 89.2202C35.7758 89.44 35.6523 89.738 35.6523 90.0488V91.959C35.6523 92.2698 35.7758 92.5679 35.9956 92.7876C36.2153 93.0074 36.5134 93.1309 36.8242 93.1309Z" fill="#ACB5BC"/>
<path d="M31.5547 88.877C31.2439 88.877 30.9458 89.0004 30.726 89.2202C30.5063 89.44 30.3828 89.738 30.3828 90.0488V91.959C30.3828 92.2698 30.5063 92.5679 30.726 92.7876C30.9458 93.0074 31.2439 93.1309 31.5547 93.1309C31.8655 93.1309 32.1636 93.0074 32.3833 92.7876C32.6031 92.5679 32.7266 92.2698 32.7266 91.959V90.0488C32.7266 89.738 32.6031 89.44 32.3833 89.2202C32.1636 89.0004 31.8655 88.877 31.5547 88.877Z" fill="#ACB5BC"/>
<path d="M26.2832 88.877C25.9724 88.877 25.6743 89.0004 25.4546 89.2202C25.2348 89.44 25.1113 89.738 25.1113 90.0488V91.959C25.1113 92.2698 25.2348 92.5679 25.4546 92.7876C25.6743 93.0074 25.9724 93.1309 26.2832 93.1309C26.594 93.1309 26.8921 93.0074 27.1118 92.7876C27.3316 92.5679 27.4551 92.2698 27.4551 91.959V90.0488C27.4551 89.738 27.3316 89.44 27.1118 89.2202C26.8921 89.0004 26.594 88.877 26.2832 88.877Z" fill="#ACB5BC"/>
<path d="M52.6348 93.1309C52.9456 93.1309 53.2436 93.0074 53.4634 92.7876C53.6832 92.5679 53.8066 92.2698 53.8066 91.959V90.0488C53.8066 89.738 53.6832 89.44 53.4634 89.2202C53.2436 89.0004 52.9456 88.877 52.6348 88.877C52.324 88.877 52.0259 89.0004 51.8061 89.2202C51.5864 89.44 51.4629 89.738 51.4629 90.0488V91.959C51.4629 92.2698 51.5864 92.5679 51.8061 92.7876C52.0259 93.0074 52.324 93.1309 52.6348 93.1309Z" fill="#ACB5BC"/>
<path d="M57.9062 93.1309C58.2171 93.1309 58.5151 93.0074 58.7349 92.7876C58.9547 92.5679 59.0781 92.2698 59.0781 91.959V90.0488C59.0781 89.738 58.9547 89.44 58.7349 89.2202C58.5151 89.0004 58.2171 88.877 57.9062 88.877C57.5954 88.877 57.2974 89.0004 57.0776 89.2202C56.8578 89.44 56.7344 89.738 56.7344 90.0488V91.959C56.7344 92.2698 56.8578 92.5679 57.0776 92.7876C57.2974 93.0074 57.5954 93.1309 57.9062 93.1309Z" fill="#ACB5BC"/>
<path d="M63.1758 93.1309C63.4866 93.1309 63.7847 93.0074 64.0044 92.7876C64.2242 92.5679 64.3477 92.2698 64.3477 91.959V90.0488C64.3477 89.738 64.2242 89.44 64.0044 89.2202C63.7847 89.0004 63.4866 88.877 63.1758 88.877C62.865 88.877 62.5669 89.0004 62.3471 89.2202C62.1274 89.44 62.0039 89.738 62.0039 90.0488V91.959C62.0039 92.2698 62.1274 92.5679 62.3471 92.7876C62.5669 93.0074 62.865 93.1309 63.1758 93.1309Z" fill="#ACB5BC"/>
<path d="M68.4453 93.1309C68.7561 93.1309 69.0542 93.0074 69.274 92.7876C69.4937 92.5679 69.6172 92.2698 69.6172 91.959V90.0488C69.6172 89.738 69.4937 89.44 69.274 89.2202C69.0542 89.0004 68.7561 88.877 68.4453 88.877C68.1345 88.877 67.8364 89.0004 67.6167 89.2202C67.3969 89.44 67.2734 89.738 67.2734 90.0488V91.959C67.2734 92.2698 67.3969 92.5679 67.6167 92.7876C67.8364 93.0074 68.1345 93.1309 68.4453 93.1309Z" fill="#ACB5BC"/>
<path d="M73.7168 93.1309C74.0276 93.1309 74.3257 93.0074 74.5454 92.7876C74.7652 92.5679 74.8887 92.2698 74.8887 91.959V90.0488C74.8887 89.738 74.7652 89.44 74.5454 89.2202C74.3257 89.0004 74.0276 88.877 73.7168 88.877C73.406 88.877 73.1079 89.0004 72.8882 89.2202C72.6684 89.44 72.5449 89.738 72.5449 90.0488V91.959C72.5449 92.2698 72.6684 92.5679 72.8882 92.7876C73.1079 93.0074 73.406 93.1309 73.7168 93.1309Z" fill="#ACB5BC"/>
<path d="M97.4356 87.0174C97.6255 86.8986 97.7772 86.7277 97.8727 86.5252C97.9683 86.3226 98.0037 86.0969 97.9747 85.8748L92.9551 47.1484C92.5085 43.7097 91.879 40.2972 91.0694 36.9254C90.5393 34.708 89.9225 32.4834 89.237 30.3143C87.9034 26.082 85.4812 22.2743 82.2129 19.2729V18.8262C82.2131 18.1516 82.0166 17.4917 81.6475 16.9271C81.2784 16.3625 80.7526 15.9178 80.1346 15.6475L78.2637 14.8271C73.806 12.8727 69.1574 11.3864 64.3926 10.3922V4.10156C64.3931 3.94764 64.363 3.79515 64.3043 3.65288C64.2455 3.51061 64.1592 3.38138 64.0503 3.27263C63.9413 3.16388 63.8119 3.07776 63.6696 3.01924C63.5272 2.96072 63.3747 2.93094 63.2208 2.93164V2.92969L36.7794 2.93164C36.6254 2.93094 36.4729 2.96072 36.3305 3.01924C36.1882 3.07776 36.0588 3.16388 35.9499 3.27263C35.8409 3.38138 35.7546 3.51061 35.6958 3.65288C35.6371 3.79515 35.607 3.94764 35.6075 4.10156V10.3906C30.8432 11.3871 26.1948 12.8738 21.7366 14.8271L19.8669 15.6475C19.2487 15.9177 18.7227 16.3623 18.3533 16.9269C17.9839 17.4915 17.7872 18.1515 17.7872 18.8262V19.2734C14.5175 22.2728 12.0952 26.0801 10.7635 30.3125C10.0799 32.4777 9.46236 34.7025 8.92877 36.9252C8.12068 40.2973 7.49187 43.7098 7.04498 47.1484L2.02545 85.8748C1.98917 86.1551 2.05538 86.439 2.2119 86.6743C2.36842 86.9096 2.6047 87.0804 2.87721 87.1553L2.34381 93.5254C2.33072 93.6818 2.3492 93.8393 2.39815 93.9885C2.44711 94.1376 2.52553 94.2755 2.62877 94.3937C2.73201 94.512 2.85796 94.6083 2.99914 94.677C3.14033 94.7456 3.29387 94.7852 3.45064 94.7934L14.9292 95.391C14.9499 95.3922 14.9704 95.3926 14.9907 95.3926C15.2639 95.3924 15.5285 95.2968 15.7387 95.1223C15.9489 94.9478 16.0915 94.7053 16.1419 94.4367L17.3454 88.0182L17.3704 88.0195C17.393 88.0209 17.4153 88.0215 17.4378 88.0215C17.687 88.0213 17.9296 87.9417 18.1305 87.7941C18.3314 87.6466 18.48 87.4389 18.5547 87.2012L18.8477 86.2693C19.2491 86.6939 19.7417 87.0218 20.2883 87.2283V95.8984C20.2883 96.2092 20.4118 96.5073 20.6316 96.7271C20.8513 96.9468 21.1494 97.0703 21.4602 97.0703H78.5391C78.8499 97.0703 79.148 96.9468 79.3678 96.7271C79.5875 96.5073 79.711 96.2092 79.711 95.8984V87.2283C80.2576 87.0218 80.7502 86.6939 81.1516 86.2693L81.4446 87.2014C81.5194 87.4392 81.668 87.6469 81.869 87.7944C82.0699 87.942 82.3127 88.0216 82.562 88.0217C82.5844 88.0217 82.6075 88.0217 82.6303 88.0197L82.9751 88.0002L84.1821 94.4373C84.2324 94.7058 84.3751 94.9483 84.5853 95.1229C84.7955 95.2974 85.06 95.393 85.3333 95.3932C85.3528 95.3932 85.3743 95.3932 85.3948 95.3916L96.8733 94.7939C97.0301 94.7858 97.1836 94.7462 97.3248 94.6775C97.466 94.6089 97.5919 94.5126 97.6952 94.3943C97.7984 94.276 97.8768 94.1382 97.9258 93.9891C97.9747 93.8399 97.9932 93.6824 97.9801 93.526L97.4356 87.0174ZM14.0274 92.9973L4.78053 92.5156L5.2149 87.3166L14.9856 87.8816L14.0274 92.9973ZM17.7872 81.832L16.5934 85.6275L4.51178 84.9279L5.98189 73.5865L17.7876 74.2701L17.7872 81.832ZM17.7872 71.7402V71.9225L6.28326 71.2564L8.25865 56.0168L17.787 56.5687V66.375C17.7869 67.3778 18.179 68.3409 18.8795 69.0584C18.1791 69.7754 17.7871 70.7379 17.7872 71.7402ZM17.801 54.2207L8.56099 53.6857L9.3692 47.4494C9.76197 44.4246 10.3067 41.3947 10.9858 38.426L17.7872 38.8199V49.1309C17.7871 50.1332 18.1793 51.0958 18.8797 51.8127C18.247 52.4629 17.8648 53.3161 17.801 54.2211V54.2207ZM17.8651 36.4771L11.5475 36.1113C11.9856 34.3973 12.4708 32.6896 12.9985 31.0184C13.9767 27.9052 15.6094 25.0373 17.7872 22.607V31.8844C17.7871 32.8872 18.1792 33.8502 18.8797 34.5678C18.3659 35.0942 18.0137 35.757 17.8651 36.4775V36.4771ZM59.8223 5.27344L50.0001 12.9611L40.1778 5.27344H59.8223ZM62.0489 6.50684V13.4684L51.1719 21.35V15.0195L62.0489 6.50684ZM37.9512 6.50684L48.8282 15.0195V21.3496L37.9512 13.4684V6.50684ZM20.1309 18.8262C20.1308 18.607 20.1947 18.3926 20.3147 18.2093C20.4347 18.0259 20.6056 17.8816 20.8065 17.7939L22.6776 16.9736C26.8374 15.1516 31.1688 13.7495 35.6073 12.7883V14.0664C35.6073 14.2516 35.6512 14.4341 35.7354 14.599C35.8196 14.764 35.9417 14.9066 36.0917 15.0152L48.8282 24.2445V33.3965H21.6426C21.2418 33.396 20.8576 33.2366 20.5742 32.9532C20.2908 32.6698 20.1314 32.2856 20.1309 31.8848V18.8262ZM20.1309 37.25C20.1316 36.8495 20.2912 36.4656 20.5746 36.1825C20.858 35.8995 21.2421 35.7404 21.6426 35.7402H48.8282V50.6406H21.6426C21.2421 50.6404 20.858 50.4814 20.5746 50.1983C20.2912 49.9153 20.1316 49.5314 20.1309 49.1309V37.25ZM20.1309 54.4961C20.1314 54.0953 20.2908 53.7111 20.5742 53.4277C20.8576 53.1443 21.2418 52.9848 21.6426 52.9844H48.8282V67.8867H21.6426C21.2418 67.8863 20.8576 67.7268 20.5742 67.4434C20.2908 67.16 20.1314 66.7758 20.1309 66.375V54.4961ZM77.3672 94.7266H22.6329V87.4746H29.7526C30.0634 87.4746 30.3615 87.3511 30.5812 87.1314C30.801 86.9116 30.9245 86.6135 30.9245 86.3027C30.9245 85.9919 30.801 85.6939 30.5812 85.4741C30.3615 85.2543 30.0634 85.1309 29.7526 85.1309H21.6426C21.6194 85.1312 21.5962 85.1303 21.5731 85.1283L21.5378 85.1256C21.1562 85.099 20.799 84.9288 20.5381 84.6492C20.2771 84.3697 20.1318 84.0016 20.1315 83.6191V71.7402C20.1322 71.3397 20.2918 70.9558 20.5752 70.6728C20.8586 70.3897 21.2427 70.2307 21.6432 70.2305H48.8282V85.1309H35.4819C35.1711 85.1309 34.873 85.2543 34.6533 85.4741C34.4335 85.6939 34.31 85.9919 34.31 86.3027C34.31 86.6135 34.4335 86.9116 34.6533 87.1314C34.873 87.3511 35.1711 87.4746 35.4819 87.4746H77.3672V94.7266ZM79.8692 83.6191C79.8689 84.0016 79.7236 84.3697 79.4626 84.6492C79.2017 84.9288 78.8444 85.099 78.4629 85.1256L78.4276 85.1283C78.4045 85.1303 78.3813 85.1312 78.3581 85.1309H51.1719V70.2305H78.3575C78.758 70.2307 79.1421 70.3897 79.4255 70.6728C79.7089 70.9558 79.8685 71.3397 79.8692 71.7402V83.6191ZM79.8692 66.375C79.8687 66.7758 79.7093 67.16 79.4259 67.4434C79.1425 67.7268 78.7583 67.8863 78.3575 67.8867H51.1719V52.9844H78.3575C78.7583 52.9848 79.1425 53.1443 79.4259 53.4277C79.7093 53.7111 79.8687 54.0953 79.8692 54.4961V66.375ZM79.8692 49.1309C79.8685 49.5314 79.7089 49.9153 79.4255 50.1983C79.1421 50.4814 78.758 50.6404 78.3575 50.6406H51.1719V35.7402H78.3575C78.758 35.7404 79.1421 35.8995 79.4255 36.1825C79.7089 36.4656 79.8685 36.8495 79.8692 37.25V49.1309ZM79.8692 31.8848C79.8687 32.2856 79.7093 32.6698 79.4259 32.9532C79.1425 33.2366 78.7583 33.396 78.3575 33.3965H51.1719V24.2445L63.9083 15.0152C64.0582 14.9066 64.1803 14.764 64.2645 14.599C64.3487 14.4341 64.3926 14.2516 64.3926 14.0664V12.79C68.8314 13.7492 73.163 15.1507 77.3223 16.9736L79.1948 17.7939C79.3953 17.8817 79.5659 18.026 79.6857 18.2093C79.8054 18.3925 79.8691 18.6067 79.869 18.8256L79.8692 31.8848ZM82.2129 31.8848V22.6074C84.3894 25.0388 86.022 27.9066 87.0018 31.0193C87.5307 32.6924 88.0153 34.3982 88.4518 36.1094L82.1346 36.4758C81.9857 35.7561 81.6338 35.0942 81.1204 34.5684C81.8209 33.8508 82.2131 32.8876 82.2129 31.8848ZM82.2129 49.1309V38.8184L89.0127 38.424C89.6934 41.3918 90.2381 44.4227 90.6309 47.4494L91.4389 53.6842L82.1989 54.2188C82.1345 53.3147 81.7524 52.4626 81.1202 51.8131C81.8209 51.0961 82.2131 50.1334 82.2129 49.1309ZM81.1192 69.0584C81.8202 68.3411 82.2128 67.378 82.2129 66.375V56.566L91.7411 56.0143L93.7165 71.2551L82.2125 71.9205V71.7402C82.2127 70.7379 81.8206 69.7753 81.1202 69.0584H81.1192ZM83.4053 85.6268L82.212 81.8344V74.2684L94.0176 73.5848L95.4879 84.9281L83.4053 85.6268ZM86.2959 92.9973L85.3335 87.8633L95.1061 87.2986L95.543 92.5156L86.2959 92.9973Z" fill="#ACB5BC"/>
</svg>
