<svg width="15" height="15" viewBox="0 0 15 15" fill="none" xmlns="http://www.w3.org/2000/svg">
<g clip-path="url(#clip0_98_183)">
<path d="M5.98524 0.146535C3.07313 0.714894 0.726449 3.05571 0.15223 5.95903C-0.931754 11.4375 4.01063 15.5215 7.73426 14.9444C8.94129 14.7569 9.53309 13.3448 8.97938 12.2579C8.30262 10.9278 9.26942 9.37505 10.7636 9.37505H13.0985C14.1473 9.37505 14.997 8.50786 14.9999 7.46196C14.9852 2.84478 10.7841 -0.788036 5.98524 0.146535ZM2.81239 9.37505C2.29383 9.37505 1.87489 8.9561 1.87489 8.43755C1.87489 7.91899 2.29383 7.50005 2.81239 7.50005C3.33094 7.50005 3.74989 7.91899 3.74989 8.43755C3.74989 8.9561 3.33094 9.37505 2.81239 9.37505ZM3.74989 5.62505C3.23133 5.62505 2.81239 5.2061 2.81239 4.68755C2.81239 4.169 3.23133 3.75005 3.74989 3.75005C4.26844 3.75005 4.68739 4.169 4.68739 4.68755C4.68739 5.2061 4.26844 5.62505 3.74989 5.62505ZM7.49989 3.75005C6.98133 3.75005 6.56239 3.3311 6.56239 2.81255C6.56239 2.294 6.98133 1.87505 7.49989 1.87505C8.01844 1.87505 8.43739 2.294 8.43739 2.81255C8.43739 3.3311 8.01844 3.75005 7.49989 3.75005ZM11.2499 5.62505C10.7313 5.62505 10.3124 5.2061 10.3124 4.68755C10.3124 4.169 10.7313 3.75005 11.2499 3.75005C11.7684 3.75005 12.1874 4.169 12.1874 4.68755C12.1874 5.2061 11.7684 5.62505 11.2499 5.62505Z" fill="#09091A"/>
</g>
<defs>
<clipPath id="clip0_98_183">
<rect width="15" height="15" fill="white"/>
</clipPath>
</defs>
</svg>
