<svg width="8" height="8" viewBox="0 0 8 8" fill="none" xmlns="http://www.w3.org/2000/svg">
<g clip-path="url(#clip0_98_226)">
<path d="M7.77981 2.2203L7.05949 2.94061C6.98606 3.01405 6.86731 3.01405 6.79387 2.94061L5.05949 1.20624C4.98606 1.1328 4.98606 1.01405 5.05949 0.940613L5.77981 0.2203C6.07199 -0.0718872 6.54699 -0.0718872 6.84074 0.2203L7.77981 1.15936C8.07356 1.45155 8.07356 1.92655 7.77981 2.2203ZM4.44074 1.55936L0.337618 5.66249L0.00636804 7.56093C-0.0389445 7.81718 0.184493 8.03905 0.440743 7.9953L2.33918 7.66249L6.44231 3.55936C6.51574 3.48593 6.51574 3.36718 6.44231 3.29374L4.70793 1.55936C4.63293 1.48593 4.51418 1.48593 4.44074 1.55936ZM1.93918 5.31093C1.85324 5.22499 1.85324 5.08749 1.93918 5.00155L4.34543 2.5953C4.43137 2.50936 4.56887 2.50936 4.65481 2.5953C4.74074 2.68124 4.74074 2.81874 4.65481 2.90468L2.24856 5.31093C2.16262 5.39686 2.02512 5.39686 1.93918 5.31093ZM1.37512 6.62499H2.12512V7.19218L1.11731 7.36874L0.631368 6.8828L0.807931 5.87499H1.37512V6.62499Z" fill="white"/>
</g>
<defs>
<clipPath id="clip0_98_226">
<rect width="8" height="8" fill="white"/>
</clipPath>
</defs>
</svg>
