<svg width="10" height="10" viewBox="0 0 10 10" fill="none" xmlns="http://www.w3.org/2000/svg">
<path d="M8.75 4.0625H5.9375V1.25C5.9375 0.904883 5.65762 0.625 5.3125 0.625H4.6875C4.34238 0.625 4.0625 0.904883 4.0625 1.25V4.0625H1.25C0.904883 4.0625 0.625 4.34238 0.625 4.6875V5.3125C0.625 5.65762 0.904883 5.9375 1.25 5.9375H4.0625V8.75C4.0625 9.09512 4.34238 9.375 4.6875 9.375H5.3125C5.65762 9.375 5.9375 9.09512 5.9375 8.75V5.9375H8.75C9.09512 5.9375 9.375 5.65762 9.375 5.3125V4.6875C9.375 4.34238 9.09512 4.0625 8.75 4.0625Z" fill="#09091A"/>
</svg>
