<svg width="100" height="100" viewBox="0 0 100 100" fill="none" xmlns="http://www.w3.org/2000/svg">
<g clip-path="url(#clip0_26_132)">
<path d="M12.3539 62.2917C12.3539 83.0846 29.2701 99.9998 50.0629 99.9998C70.8557 99.9998 87.7719 83.0846 87.7719 62.2917C87.7719 42.5155 72.4665 26.2583 53.0813 24.7143L64.0704 14.4013C65.0574 13.4763 65.6029 12.2442 65.704 10.9729C65.7155 10.9042 65.745 10.8423 65.745 10.7707C65.745 10.7221 65.7221 10.6811 65.7174 10.6334C65.7326 9.62633 65.478 8.60972 64.901 7.71136L61.5041 2.41469C60.5332 0.903124 58.8824 0 57.0857 0H42.6939C40.8581 0 39.1319 0.978464 38.1897 2.55297L35.0626 7.77907C33.799 9.8905 34.1843 12.6466 35.9791 14.3308L47.0455 24.7143C27.6593 26.2583 12.3539 42.5155 12.3539 62.2917V62.2917ZM54.0569 12.021L50.0629 22.3626L46.0689 12.021H54.0569ZM46.4552 9.52047L49.9246 3.7422L53.602 9.52047H46.4552ZM53.2033 21.1714L56.7367 12.021H62.8058C62.6809 12.2203 62.5388 12.411 62.3604 12.5789L53.2033 21.1714ZM59.3993 3.76508L62.7972 9.0608C62.8916 9.20862 62.9689 9.36312 63.0328 9.52047H56.566L52.0971 2.49957H57.0857C58.027 2.49957 58.892 2.97258 59.3993 3.76508ZM40.3345 3.83756C40.8285 3.01169 41.7326 2.49957 42.6939 2.49957H47.7541L43.5388 9.52047H36.991C37.0491 9.36407 37.1197 9.21053 37.2074 9.06271L40.3345 3.83756ZM37.2904 12.021H43.3891L46.9234 21.1724L37.69 12.5083C37.5336 12.3605 37.4058 12.1946 37.2904 12.021ZM50.0629 27.0823C69.4767 27.0823 85.2714 42.8769 85.2714 62.2917C85.2714 81.7055 69.4767 97.5002 50.0629 97.5002C30.6481 97.5002 14.8544 81.7055 14.8544 62.2917C14.8544 42.8769 30.6481 27.0823 50.0629 27.0823V27.0823Z" fill="#DD6E42"/>
<path d="M29.1042 83.2505C34.7022 88.8485 42.1456 91.9327 50.0629 91.9327C57.9803 91.9327 65.4237 88.8485 71.0217 83.2505C76.6207 77.6524 79.7039 70.2091 79.7039 62.2917C79.7039 54.3743 76.6207 46.931 71.0217 41.332C59.4652 29.7754 40.6617 29.7754 29.1042 41.332C17.5467 52.8895 17.5467 71.6939 29.1042 83.2505V83.2505ZM30.8713 43.1001C36.1632 37.8082 43.1116 35.1636 50.0629 35.1636C57.0123 35.1636 63.9636 37.8091 69.2546 43.1001C74.3805 48.226 77.2043 55.0419 77.2043 62.2917C77.2043 69.5415 74.3805 76.3564 69.2546 81.4824C64.1276 86.6093 57.3127 89.4321 50.0629 89.4321C42.8131 89.4321 35.9973 86.6093 30.8713 81.4824C20.2894 70.9005 20.2894 53.6829 30.8713 43.1001Z" fill="#DD6E42"/>
</g>
<defs>
<clipPath id="clip0_26_132">
<rect width="100" height="100" fill="white"/>
</clipPath>
</defs>
</svg>
