<svg width="15" height="15" viewBox="0 0 15 15" fill="none" xmlns="http://www.w3.org/2000/svg">
<g clip-path="url(#clip0_98_194)">
<path d="M14.8993 5.41877L13.0337 2.24299C12.8274 1.89143 12.3704 1.7719 12.0142 1.97346L10.397 2.88986L11.7962 5.27346C11.8478 5.36252 11.8173 5.47268 11.7282 5.52424L11.4048 5.70705C11.3157 5.75861 11.2009 5.72815 11.1493 5.63908L9.75011 3.25783L8.45636 3.99143L9.11026 5.10236C9.16183 5.19143 9.13136 5.30158 9.04229 5.35314L8.71886 5.53596C8.62979 5.58752 8.51495 5.55705 8.46339 5.46799L7.80948 4.35939L6.51573 5.09299L7.91729 7.47658C7.96886 7.5633 7.93839 7.6758 7.84933 7.72736L7.52589 7.91018C7.43683 7.96174 7.32198 7.93127 7.27042 7.84221L5.8712 5.45861L4.57745 6.19221L5.23136 7.30314C5.28292 7.39221 5.25245 7.50236 5.16339 7.55393L4.83995 7.73674C4.75089 7.7883 4.63604 7.75783 4.58448 7.66877L3.93058 6.55549L2.63682 7.28908L4.03604 9.67268C4.08761 9.7594 4.05714 9.87189 3.96808 9.92346L3.64464 10.1063C3.55558 10.1578 3.44073 10.1274 3.38917 10.0383L1.98995 7.66174L0.372762 8.57814C0.0165122 8.78205 -0.107707 9.22971 0.0985435 9.58127L1.96417 12.7594C2.17042 13.111 2.62745 13.2305 2.9837 13.0289L14.6274 6.4219C14.9837 6.22033 15.1056 5.77033 14.8993 5.41877Z" fill="#09091A"/>
</g>
<defs>
<clipPath id="clip0_98_194">
<rect width="15" height="15" fill="white"/>
</clipPath>
</defs>
</svg>
