<svg width="100" height="100" viewBox="0 0 100 100" fill="none" xmlns="http://www.w3.org/2000/svg">
<path d="M81.9711 15.665L71.1313 11.1484L61.9377 3.48711C61.6569 3.25314 61.303 3.12501 60.9375 3.125H39.0625C38.697 3.12496 38.343 3.2531 38.0621 3.48711L28.8686 11.1484L18.0287 15.665C15.4631 16.7288 13.2711 18.5303 11.7305 20.8413C10.19 23.1522 9.37014 25.8685 9.37502 28.6459V95.3125C9.37502 95.7269 9.53964 96.1243 9.83267 96.4174C10.1257 96.7104 10.5231 96.875 10.9375 96.875H23.4375C23.8519 96.875 24.2494 96.7104 24.5424 96.4174C24.8354 96.1243 25 95.7269 25 95.3125V92.9688C28.8 94.3832 37.2979 96.875 50 96.875C62.7022 96.875 71.1998 94.3826 75 92.9688V95.3125C75 95.7269 75.1646 96.1243 75.4577 96.4174C75.7507 96.7104 76.1481 96.875 76.5625 96.875H89.0625C89.4769 96.875 89.8744 96.7104 90.1674 96.4174C90.4604 96.1243 90.625 95.7269 90.625 95.3125V28.6459C90.6299 25.8685 89.8101 23.1522 88.2694 20.8412C86.7288 18.5303 84.5367 16.7288 81.9711 15.665V15.665ZM50 13.4152L42.8348 6.25H57.1653L50 13.4152ZM47.8862 15.7199L42.0824 22.6842L32.0022 12.6049L38.9666 6.80137L47.8862 15.7199ZM61.0334 6.80039L67.9979 12.6039L57.9174 22.6842L52.1139 15.7209L61.0334 6.80039ZM21.875 93.75H12.5V90.625H21.875V93.75ZM25 89.0625V35.9375C25 35.5231 24.8354 35.1257 24.5424 34.8326C24.2494 34.5396 23.8519 34.375 23.4375 34.375C23.0231 34.375 22.6257 34.5396 22.3327 34.8326C22.0396 35.1257 21.875 35.5231 21.875 35.9375V87.5H12.5V28.6459C12.4962 26.4857 13.1338 24.373 14.3321 22.5756C15.5304 20.7782 17.2354 19.3771 19.2309 18.5498L29.3227 14.3449L41.0826 26.1049C41.2277 26.25 41.4 26.3651 41.5896 26.4436C41.7791 26.5221 41.9823 26.5625 42.1875 26.5625C42.211 26.5625 42.2346 26.5625 42.2582 26.5609C42.4752 26.5511 42.6877 26.4962 42.8822 26.3996C43.0767 26.3031 43.2489 26.167 43.3879 26.0002L48.4375 19.9414V93.7365C35.6623 93.5166 27.5477 90.6506 25 89.6051V89.0625ZM87.5 93.75H78.125V90.625H87.5V93.75ZM87.5 87.5H78.125V35.9375C78.125 35.5231 77.9604 35.1257 77.6674 34.8326C77.3744 34.5396 76.9769 34.375 76.5625 34.375C76.1481 34.375 75.7507 34.5396 75.4577 34.8326C75.1646 35.1257 75 35.5231 75 35.9375V89.6076C72.461 90.6547 64.3862 93.5178 51.5625 93.7365V19.9414L56.6121 26.001C56.7511 26.1678 56.9234 26.3038 57.1179 26.4004C57.3124 26.4969 57.5249 26.5519 57.7418 26.5617C57.7655 26.5627 57.7891 26.5633 57.8125 26.5633C58.0177 26.5633 58.2209 26.5229 58.4105 26.4444C58.6001 26.3658 58.7723 26.2508 58.9174 26.1057L70.6776 14.3457L80.7692 18.5506C82.7646 19.3778 84.4694 20.7788 85.6677 22.5761C86.866 24.3733 87.5037 26.4858 87.5 28.6459V87.5Z" fill="#DD6E42"/>
<path d="M56.25 35.9375C57.1129 35.9375 57.8125 35.2379 57.8125 34.375C57.8125 33.5121 57.1129 32.8125 56.25 32.8125C55.3871 32.8125 54.6875 33.5121 54.6875 34.375C54.6875 35.2379 55.3871 35.9375 56.25 35.9375Z" fill="#DD6E42"/>
<path d="M56.25 51.5625C57.1129 51.5625 57.8125 50.8629 57.8125 50C57.8125 49.1371 57.1129 48.4375 56.25 48.4375C55.3871 48.4375 54.6875 49.1371 54.6875 50C54.6875 50.8629 55.3871 51.5625 56.25 51.5625Z" fill="#DD6E42"/>
<path d="M56.25 67.1875C57.1129 67.1875 57.8125 66.4879 57.8125 65.625C57.8125 64.7621 57.1129 64.0625 56.25 64.0625C55.3871 64.0625 54.6875 64.7621 54.6875 65.625C54.6875 66.4879 55.3871 67.1875 56.25 67.1875Z" fill="#DD6E42"/>
<path d="M56.25 82.8125C57.1129 82.8125 57.8125 82.1129 57.8125 81.25C57.8125 80.3871 57.1129 79.6875 56.25 79.6875C55.3871 79.6875 54.6875 80.3871 54.6875 81.25C54.6875 82.1129 55.3871 82.8125 56.25 82.8125Z" fill="#DD6E42"/>
</svg>
