<svg width="100" height="100" viewBox="0 0 100 100" fill="none" xmlns="http://www.w3.org/2000/svg">
<g clip-path="url(#clip0_26_125)">
<path d="M94.3275 28.5706C92.9356 28.5965 91.5545 28.8172 90.224 29.2265C89.5018 29.4609 89.0265 30.15 89.0635 30.9083V35.2978C85.8044 37.4133 81.9621 38.4489 78.0814 38.2578C76.9546 38.2578 76.0632 38.2578 75.5418 38.1401L64.5429 27.7297C63.7022 27.0162 62.6155 26.6601 61.5156 26.7375C55.5452 26.7375 41.9058 33.4647 34.7077 37.686C26.1642 42.7314 8.84166 45.6577 8.67348 45.6913L8.3203 45.7923C-0.441872 49.4249 -0.660506 56.6567 0.499936 60.1212C2.92173 72.5497 30.3182 73.2729 36.5577 73.2729H96.6316C97.5604 73.2729 98.3134 72.5198 98.3134 71.5911V62.6271C99.1905 61.6153 99.7722 60.3819 99.9952 59.0617C100.002 58.9778 100.002 58.8933 99.9952 58.8094V33.5824C99.9448 30.4206 97.8089 28.5706 94.3275 28.5706ZM27.3078 44.5645L29.5278 48.6009C29.9922 49.4136 31.0275 49.6959 31.8403 49.2315C32.653 48.7671 32.9353 47.7318 32.471 46.9191L30.5032 43.3368C31.9328 42.7818 33.295 42.1932 34.5564 41.5541L37.365 45.8427C37.863 46.6268 38.9024 46.8587 39.6863 46.3607C40.4702 45.8627 40.7023 44.8233 40.2043 44.0394C40.1944 44.0236 40.1841 44.0083 40.1736 43.9929L37.5163 39.9398C38.7272 39.2503 39.9718 38.5607 41.2668 37.888L44.6304 42.7989C45.1202 43.588 46.157 43.8309 46.9462 43.341C47.7354 42.8512 47.9782 41.8144 47.4884 41.0252C47.4577 40.9756 47.4243 40.9276 47.3885 40.8816L44.2267 36.3407C45.7235 35.6008 47.2372 34.8776 48.7003 34.2217L52.6357 39.9398C53.1512 40.7126 54.1954 40.9211 54.9682 40.4057C55.741 39.8902 55.9495 38.846 55.434 38.0732C55.4265 38.0619 55.4187 38.0505 55.4109 38.0394L51.9128 32.994C54.9369 31.5714 58.1663 30.6348 61.4822 30.219C61.7221 30.1864 61.9655 30.1864 62.2054 30.219L68.9326 36.5257C62.2926 45.4298 53.0381 52.0385 42.4611 55.4292C37.8079 53.9137 33.0125 52.8768 28.1489 52.3347C23.8238 52.0309 19.7042 50.3714 16.3763 47.592C19.7397 46.8518 23.5574 45.8427 27.3078 44.5645ZM9.41348 49.0213C9.83392 49.0213 10.9103 48.7522 12.3903 48.4495C16.5538 52.678 22.1127 55.2484 28.031 55.6812C33.5641 55.9503 45.2358 59.6839 53.258 62.4084H45.8917C15.4343 62.5262 6.28533 60.1212 3.56081 58.4394C3.174 56.9258 2.63582 51.8635 9.41348 49.0213ZM94.9498 69.8924H37.365C29.9651 69.9934 12.323 68.8329 5.99942 63.0475C11.2466 64.4434 22.1615 65.8898 45.9926 65.8898C51.5762 65.8898 57.2102 65.8898 62.5583 65.6879C67.6037 65.5702 72.3632 65.4189 76.6182 65.2507C86.9444 64.8639 94.1594 64.4434 94.2435 64.4266C94.4787 64.4424 94.7146 64.4424 94.9498 64.4266V69.8924ZM96.6316 58.658C96.5307 59.1457 96.0093 61.0798 94.1089 61.0798C93.9912 61.0798 87.819 61.4498 78.7541 61.8198C82 50.2827 92.2926 46.465 96.6316 45.3718V58.658ZM75.2223 61.9543C71.4046 62.0889 67.2001 62.2234 62.7938 62.3243C61.297 61.7525 54.9398 59.398 47.809 57.1108C57.1278 53.2248 65.2515 46.9405 71.3542 38.8969L73.5573 41.0159C73.8081 41.2512 74.1251 41.4038 74.4655 41.4532C75.6421 41.6063 76.8276 41.6794 78.0141 41.6718C82.0504 41.6718 87.7181 40.8982 91.8048 37.2319C92.1572 36.914 92.3588 36.4618 92.3598 35.9874V32.136C92.98 32.0099 93.6107 31.9422 94.2435 31.9342C96.5475 31.9342 96.5812 32.9433 96.598 33.616L96.6316 41.9241C92.1748 42.9836 78.7036 47.3227 75.2223 61.9543Z" fill="#ACB5BC"/>
</g>
<defs>
<clipPath id="clip0_26_125">
<rect width="100" height="100" fill="white"/>
</clipPath>
</defs>
</svg>
