<svg width="100" height="100" viewBox="0 0 100 100" fill="none" xmlns="http://www.w3.org/2000/svg">
<path d="M71.4062 12.1406H28.5937C28.2829 12.1406 27.9849 12.0172 27.7651 11.7974C27.5453 11.5776 27.4219 11.2796 27.4219 10.9688C27.4219 10.6579 27.5453 10.3599 27.7651 10.1401C27.9849 9.92034 28.2829 9.79688 28.5937 9.79688H71.4062C71.717 9.79688 72.0151 9.92034 72.2349 10.1401C72.4547 10.3599 72.5781 10.6579 72.5781 10.9688C72.5781 11.2796 72.4547 11.5776 72.2349 11.7974C72.0151 12.0172 71.717 12.1406 71.4062 12.1406Z" fill="#ACB5BC"/>
<path d="M98.4289 84.2828C89.4 45.7492 80.7032 21.0571 75.5711 10.7977C75.4608 10.5779 75.3927 10.3394 75.3704 10.0946L74.7227 2.87815C74.6637 2.19729 74.3508 1.56352 73.8461 1.1027C73.3414 0.641879 72.6819 0.387705 71.9985 0.39065H28.0016C27.3178 0.387754 26.658 0.642254 26.1532 1.10356C25.6485 1.56487 25.3358 2.19921 25.2774 2.88049L24.6297 10.0953C24.6074 10.3402 24.5393 10.5787 24.4289 10.7985C19.2969 21.0571 10.6 45.7492 1.57112 84.2828C1.50982 84.5433 1.50255 84.8135 1.54977 85.0769C1.59698 85.3402 1.69768 85.5911 1.84564 85.814C1.99359 86.037 2.18568 86.2272 2.41002 86.373C2.63437 86.5188 2.88622 86.6171 3.15003 86.6617L15.6032 88.7375L15.3492 89.9672C15.2928 90.2274 15.2902 90.4963 15.3415 90.7576C15.3929 91.0188 15.497 91.2668 15.6477 91.4863C15.7983 91.7058 15.9923 91.8921 16.2176 92.034C16.4429 92.1758 16.6948 92.27 16.9578 92.311L32.4602 94.7125L32.2836 96.2008C32.2493 96.4632 32.2686 96.7299 32.3403 96.9847C32.412 97.2394 32.5346 97.477 32.7008 97.683C32.8669 97.889 33.0731 98.0592 33.3069 98.1833C33.5407 98.3073 33.7972 98.3826 34.061 98.4047C39.3485 98.8469 44.6743 99.0688 49.9985 99.0688C55.3227 99.0688 60.65 98.8469 65.936 98.4047C66.1982 98.3826 66.4533 98.3078 66.686 98.1848C66.9187 98.0619 67.1241 97.8932 67.2901 97.689C67.4561 97.4848 67.5792 97.2492 67.6521 96.9963C67.7249 96.7434 67.746 96.4784 67.7141 96.2172L67.536 94.7149L83.0399 92.3125C83.3016 92.2714 83.5523 92.1775 83.7766 92.0365C84.0009 91.8955 84.1942 91.7103 84.3447 91.4922C84.4952 91.2742 84.5997 91.0277 84.6519 90.768C84.7042 90.5082 84.703 90.2406 84.6485 89.9813L84.393 88.7391L96.8461 86.6633C97.1099 86.6186 97.3618 86.5204 97.5861 86.3746C97.8105 86.2288 98.0026 86.0385 98.1505 85.8156C98.2985 85.5927 98.3992 85.3418 98.4464 85.0784C98.4936 84.8151 98.4864 84.5448 98.425 84.2844L98.4289 84.2828ZM83.9235 86.4406L71.0696 24.0797C71.0042 23.778 70.8223 23.5142 70.5635 23.3458C70.3047 23.1774 69.99 23.1179 69.6876 23.1803C69.3852 23.2427 69.1196 23.4219 68.9486 23.6789C68.7776 23.936 68.715 24.2502 68.7743 24.5531L82.2758 90.0586L67.2657 92.3844L59.3664 25.7735C59.3523 25.6175 59.3071 25.4659 59.2334 25.3277C59.1597 25.1895 59.059 25.0675 58.9374 24.9688C58.8157 24.8702 58.6755 24.7969 58.525 24.7534C58.3746 24.7099 58.2169 24.6969 58.0614 24.7154C57.9059 24.7338 57.7556 24.7833 57.6195 24.8608C57.4834 24.9382 57.3642 25.0422 57.269 25.1666C57.1737 25.2909 57.1044 25.4331 57.065 25.5847C57.0257 25.7363 57.0171 25.8943 57.0399 26.0492L65.3446 96.1031C55.1317 96.9324 44.8684 96.9324 34.6555 96.1031L42.9602 26.0492C42.9829 25.8943 42.9744 25.7363 42.935 25.5847C42.8957 25.4331 42.8263 25.2909 42.7311 25.1666C42.6359 25.0422 42.5167 24.9382 42.3806 24.8608C42.2445 24.7833 42.0942 24.7338 41.9387 24.7154C41.7831 24.6969 41.6255 24.7099 41.475 24.7534C41.3246 24.7969 41.1844 24.8702 41.0627 24.9688C40.941 25.0675 40.8404 25.1895 40.7667 25.3277C40.693 25.4659 40.6478 25.6175 40.6336 25.7735L32.7344 92.3844L17.7227 90.0586L31.2258 24.5531C31.2586 24.4018 31.2611 24.2454 31.2331 24.0931C31.2051 23.9407 31.1472 23.7954 31.0627 23.6656C30.9783 23.5358 30.8689 23.424 30.7409 23.3367C30.613 23.2495 30.469 23.1884 30.3173 23.1571C30.1656 23.1258 30.0092 23.1249 29.8571 23.1544C29.7051 23.184 29.5604 23.2434 29.4314 23.3291C29.3025 23.4149 29.1918 23.5254 29.1058 23.6543C29.0198 23.7831 28.9603 23.9277 28.9305 24.0797L16.0766 86.4406L3.94612 84.418C12.8961 46.311 21.4719 21.9531 26.525 11.8469C26.7665 11.3656 26.9157 10.8433 26.9649 10.3071L27.6125 3.09065C27.6211 2.99312 27.6661 2.90238 27.7384 2.8364C27.8108 2.77042 27.9052 2.73402 28.0032 2.7344H71.9985C72.0964 2.73402 72.1909 2.77042 72.2632 2.8364C72.3356 2.90238 72.3805 2.99312 72.3891 3.09065L73.0368 10.3086C73.0861 10.8441 73.2353 11.3656 73.4766 11.8461C78.5297 21.9516 87.1055 46.311 96.0547 84.418L83.9235 86.4406Z" fill="#ACB5BC"/>
</svg>
