<svg width="40" height="40" viewBox="0 0 40 40" fill="none" xmlns="http://www.w3.org/2000/svg">
<path d="M36.5762 14.5771L26.433 13.0981L21.8983 3.90324C21.4913 3.08133 20.6963 2.66649 19.9015 2.66663C19.1118 2.66663 18.3224 3.07626 17.9148 3.90324L13.3801 13.0981L3.23689 14.5771C1.41656 14.8409 0.68749 17.0837 2.00675 18.3684L9.34669 25.5213L7.61098 35.6257C7.36405 37.0698 8.51304 38.2266 9.80146 38.2266C10.1433 38.2266 10.4949 38.1452 10.8329 37.9662L19.9065 33.1951L28.9802 37.9662C29.3173 38.1435 29.668 38.2241 30.009 38.2241C31.2986 38.2241 32.4492 37.0707 32.2022 35.6257L30.4664 25.5213L37.8065 18.3684C39.1256 17.0837 38.3966 14.8409 36.5762 14.5771ZM26.9899 24.9328L28.5425 33.9712L20.4217 29.7011C20.0991 29.5315 19.7139 29.5315 19.3913 29.7011L11.2707 33.9712L12.8233 24.9328C12.8853 24.5717 12.7657 24.2031 12.5035 23.9476L5.94035 17.5518L15.0118 16.2292C15.3727 16.1766 15.6847 15.9495 15.8462 15.6219L19.9065 7.3886L23.967 15.6219C24.1285 15.9495 24.4405 16.1766 24.8014 16.2292L33.8727 17.5518L27.3096 23.9476C27.0474 24.2031 26.9278 24.5717 26.9899 24.9328Z" fill="#DD6E42"/>
</svg>
