<svg width="100" height="100" viewBox="0 0 100 100" fill="none" xmlns="http://www.w3.org/2000/svg">
<path d="M82.4383 95.2055C82.4583 95.1123 82.4685 95.0172 82.4688 94.9219C82.4688 94.8891 82.4618 94.8586 82.4594 94.8273C82.4594 94.8141 82.4594 94.8023 82.4594 94.7891L73.8203 4.94531H73.8149C73.7832 4.60801 73.6269 4.29463 73.3766 4.06638C73.1262 3.83813 72.7998 3.7114 72.461 3.71094H27.5391C27.2004 3.71157 26.874 3.83836 26.6237 4.06658C26.3734 4.2948 26.217 4.60808 26.1852 4.94531H26.1797L17.5391 94.7891V94.825C17.5391 94.8578 17.5289 94.8891 17.5289 94.9227C17.5291 95.0182 17.5393 95.1136 17.5594 95.207V95.2195C17.6267 95.5229 17.7955 95.7943 18.0378 95.9888C18.2801 96.1834 18.5815 96.2896 18.8922 96.2898H38.4117C38.7315 96.2895 39.041 96.1769 39.2863 95.9717C39.5315 95.7666 39.697 95.4818 39.7539 95.1672L39.7578 95.1492L50 34.0703L60.2422 95.1484V95.1625C60.2982 95.4781 60.4634 95.7639 60.7089 95.9699C60.9545 96.1758 61.2647 96.2888 61.5852 96.2891H81.1016C81.4124 96.2889 81.7139 96.1828 81.9562 95.9882C82.1985 95.7936 82.3672 95.5222 82.4344 95.2188C82.4383 95.2141 82.4375 95.2094 82.4383 95.2055ZM62.7461 93.5547L51.3672 25.6477V12.1617H62.493C62.753 14.3956 63.8252 16.4559 65.5056 17.9505C67.1861 19.4451 69.3574 20.2696 71.6063 20.2672H72.5493L79.5977 93.5547H62.7461ZM37.2532 93.5547H20.4024L27.4508 20.2672H28.3946C30.6434 20.2698 32.8147 19.4452 34.4951 17.9506C36.1754 16.456 37.2474 14.3956 37.5071 12.1617H48.6328V25.6477L37.2532 93.5547ZM72.2868 17.5328H71.6063C70.0835 17.5342 68.6096 16.9951 67.447 16.0115C66.2845 15.028 65.5087 13.6637 65.2578 12.1617H71.7704L72.2868 17.5328ZM71.5055 9.42734H28.493L28.7797 6.44531H71.2204L71.5055 9.42734ZM34.7414 12.1617C34.4906 13.6637 33.7148 15.028 32.5522 16.0115C31.3897 16.9951 29.9158 17.5342 28.393 17.5328H27.7125L28.2289 12.1617H34.7414Z" fill="#ACB5BC"/>
</svg>
