<svg width="30" height="30" viewBox="0 0 30 30" fill="none" xmlns="http://www.w3.org/2000/svg">
<g clip-path="url(#clip0_21_582)">
<path d="M29.5875 7.52344L20.461 3C19.5188 4.30313 17.4328 5.2125 15 5.2125C12.5672 5.2125 10.4813 4.30313 9.53908 3L0.412516 7.52344C0.0422034 7.71094 -0.107797 8.16094 0.0750159 8.53125L2.75627 13.8984C2.94377 14.2688 3.39377 14.4188 3.76408 14.2359L6.4172 12.9375C6.91408 12.6938 7.49533 13.0547 7.49533 13.6125V25.5C7.49533 26.3297 8.16564 27 8.99533 27H20.9953C21.825 27 22.4953 26.3297 22.4953 25.5V13.6078C22.4953 13.0547 23.0766 12.6891 23.5735 12.9328L26.2266 14.2313C26.5969 14.4188 27.0469 14.2688 27.2344 13.8938L29.9203 8.53125C30.1078 8.16094 29.9578 7.70625 29.5875 7.52344Z" fill="#DD6E42"/>
</g>
<defs>
<clipPath id="clip0_21_582">
<rect width="30" height="30" fill="white"/>
</clipPath>
</defs>
</svg>
